<svg viewBox="0 0 60 60" xmlns="http://www.w3.org/2000/svg"><rect fill="#222222" height="60" rx="10" width="60" class="fill-ffffff fill-fafafa"></rect><rect fill="#222222" height="32" rx="4" width="44" x="8" y="14" class="fill-f1f3f4"></rect><path d="M48 47.5H12A5.506 5.506 0 0 1 6.5 42V18a5.506 5.506 0 0 1 5.5-5.5h36a5.506 5.506 0 0 1 5.5 5.5v24a5.506 5.506 0 0 1-5.5 5.5Zm-36-32A2.5 2.5 0 0 0 9.5 18v24a2.5 2.5 0 0 0 2.5 2.5h36a2.5 2.5 0 0 0 2.5-2.5V18a2.5 2.5 0 0 0-2.5-2.5Z" fill="#f78185" class="fill-f29580 fill-f78185"></path><path d="M25.577 28.825a6 6 0 0 1 8.846 0l15.349 16.744A3.956 3.956 0 0 1 48 46H12a3.956 3.956 0 0 1-1.772-.431Z" fill="#222222" class="fill-f1f3f4"></path><path d="M48 47.5H12a5.453 5.453 0 0 1-2.439-.587 1.5 1.5 0 0 1-.438-2.357l15.348-16.744a7.5 7.5 0 0 1 11.058 0l15.348 16.744a1.5 1.5 0 0 1-.438 2.357A5.453 5.453 0 0 1 48 47.5Zm-34.756-3h33.512L33.317 29.839a4.5 4.5 0 0 0-6.634 0Zm12.333-15.675Z" fill="#f78185" class="fill-f29580 fill-f78185"></path><path d="M25.577 31.175a6 6 0 0 0 8.846 0l15.349-16.744A3.956 3.956 0 0 0 48 14H12a3.956 3.956 0 0 0-1.772.431Z" fill="#222222" class="fill-f1f3f4"></path><path d="M30 34.621a7.518 7.518 0 0 1-5.529-2.433L9.123 15.444a1.5 1.5 0 0 1 .438-2.357A5.453 5.453 0 0 1 12 12.5h36a5.453 5.453 0 0 1 2.439.587 1.5 1.5 0 0 1 .438 2.357L35.529 32.188A7.518 7.518 0 0 1 30 34.621ZM13.244 15.5l13.439 14.661a4.5 4.5 0 0 0 6.634 0L46.756 15.5Z" fill="#f78185" class="fill-f2bf80 fill-f78185"></path></svg>