<svg xmlns="http://www.w3.org/2000/svg" viewBox="0 0 844 941"><defs><style>.cls-1{fill:#fcb1ff;}.cls-2{fill:#e08455;}.cls-3{fill:#f9a96e;}.cls-4{fill:none;}.cls-5{fill:#fcb424;}.cls-6{fill:#f3872a;}.cls-7{fill:#ad1f33;}.cls-8{fill:#e92934;}</style></defs><g id="Ebene_2" data-name="Ebene 2"><g id="Ebene_1-2" data-name="Ebene 1"><rect class="cls-1" width="844" height="941"/></g><g id="Ebene_2-2" data-name="Ebene 2"><path class="cls-2" d="M435.5,552.5c25.67-8.26,47.25-16.32,64-23,41-16.33,62.61-28.16,69-33a74.83,74.83,0,0,1,11-7,86.78,86.78,0,0,1,9-4c9.9-3.82,12.62-3.4,16-5,12.09-5.73,12.93-28,13-32s-.23-10.18-9-34c-4.39-11.93-7.85-21.32-13-32-14.33-29.7-35-55.26-48-69-53.37-56.38-133.9-78.54-147-82-3.81-.77-15.23-2.55-24,4-12.11,9.05-15.23,31.08-3,51"/><path class="cls-3" d="M382,249c7.74,11.54,6,13.5,11,18a30.1,30.1,0,0,0,11,6c12.68,4.46,24.51,11.05,37,16,16.42,6.51,27.23,14.84,43,27a268.59,268.59,0,0,1,72,85c9.23,17.31,13.84,26,16,35a44.09,44.09,0,0,0,5,13c2.16,3.67,6,10.26,14,14a29.41,29.41,0,0,0,18,2,55.81,55.81,0,0,0,2-24c-1-6.69-2.79-9.43-9-26-6-16.09-5.23-15.23-8-22a207.06,207.06,0,0,0-16-31c-21.61-35.38-52.47-61.71-54-63-26.53-22.33-50.91-33.58-67-41-14.79-6.82-11.94-4-27-11,0,0-29.09-13.44-39-11-.29.07-1.76.48-4,1a26.88,26.88,0,0,0-4,1c-.75.31-3.21,1.32-4,3C378,243.24,380.09,246.15,382,249Z"/><path class="cls-4" d="M561.5,471.5a32.13,32.13,0,0,0,18,12,31,31,0,0,0,14,0"/><path class="cls-5" d="M372.5,287.5c-20.91,40.37-37.08,75.57-49,103-39.56,91-32.48,79.67-48,123-11.73,32.77-21.05,61.07-28,83a23.67,23.67,0,0,0-1,13c1.82,8,7.63,10.78,13,18,5.8,7.79,7.14,15.43,9,26a87.7,87.7,0,0,1-1,35,37.92,37.92,0,0,0-1,20c.7,3.07,3.87,16.9,12,18,5.67.77,11.43-5,14-10s2.11-9.74,0-25c-2.33-16.84-2.43-16.24-3-21-2.92-24.35.09-36.19,2-42,3-9.22,6-11.35,7-12,4.19-2.72,7.52-1.25,22-2,7-.36,10.57-.63,14-2a32.27,32.27,0,0,0,13-10c4.45-5.6,3.52-8.1,9-15,3-3.74,4.45-5.61,7-7,5.78-3.16,9.86-.44,20-1a56.08,56.08,0,0,0,15-3c7.71-2.52,12.7-5.93,20-11,11.41-7.93,17.12-11.89,19-17,2.15-5.83,1.07-11.47,6-16a14.9,14.9,0,0,1,5-3q27.18-11.43,56-25,28.31-13.39,54-27a8.15,8.15,0,0,0,3-4c1.56-4.94-3.3-9.41-8-19a71.35,71.35,0,0,1-4-10,271.84,271.84,0,0,0-55-84C449.14,313.42,398.06,294.85,372.5,287.5Z"/><path class="cls-6" d="M354,508c5.09-5.84,13.21-15.24,23-27,21.17-25.42,30.84-38.25,49-61,8.54-10.7,21.37-26.35,38-45,28,1.87,49.18,8.11,55,15,3,3.49,6,8,6,8a109.78,109.78,0,0,1,7,12c7.77,15,7.72,13,12,22,4.84,10.14,4.72,12.27,10,23,2.75,5.59,5.27,10.05,7,13a1255.21,1255.21,0,0,1-138,65q-24.4,9.72-48,18"/><path class="cls-4" d="M249.5,601.5l33-10c27.33-8.33,49.1-16.26,64-22,18.26-7,28.39-11.6,55-22,19.08-7.45,34.76-13.26,45-17"/><path class="cls-7" d="M455.5,327.5a54.52,54.52,0,0,0-28,18c-2.86,3.51-12.94,16.78-12,36,.25,5.16,1.95,23.92,18,37s35.1,11,41,10c30.8-5.22,43.3-36.17,44-38a159.1,159.1,0,0,0-63-63Z"/><path class="cls-8" d="M364,304c2.38.77,15.72,5.36,22.5,19.5,5.11,10.66,5.19,24-1,34-9.24,14.88-31.77,21.09-52.5,11.5q7.32-15.87,15-32Q356,320.26,364,304Z"/><path class="cls-7" d="M438,527a50.6,50.6,0,0,1-7.5-21.5c-.44-4.23-1.84-22.95,12-38,11.83-12.86,27-14.61,31-15,2.93-.29,24.45-2.07,40,14A47.31,47.31,0,0,1,525,487q-19.54,9.54-40,19Q461.15,517,438,527Z"/><path class="cls-8" d="M334.5,427.5c8.56-9.82,21.13-10,24-10,11.51.15,26.06,6.51,31,21,4.47,13.1-.81,27.3-11,35-13.16,9.95-33.14,8-44-5C324.44,456.47,325,438.37,334.5,427.5Z"/><path class="cls-8" d="M285,587a62.69,62.69,0,0,1-2.5-29.5c.61-3.79,5.58-31.77,32-45,22.77-11.4,44.51-3.36,48-2,23,8.94,31.93,28.82,33.5,32.5Z"/><path class="cls-7" d="M344.56,463c5.53-1.61,8-1.36,12.26-2.75a35.9,35.9,0,0,0,7.68-3.79C374.72,449.76,375,429.88,375,428a26.59,26.59,0,0,1,9,12c2.86,7.86,2,17.74-4,25-6.34,7.68-15.34,8.7-18,9a25.75,25.75,0,0,1-14-2,25.21,25.21,0,0,1-9-7A53.63,53.63,0,0,1,344.56,463Z"/><path class="cls-7" d="M287,573a248.82,248.82,0,0,0,63-60,51.12,51.12,0,0,1,20,7,52.63,52.63,0,0,1,21,25L290,584a46,46,0,0,1-3-11Z"/><path class="cls-6" d="M283,660a88.48,88.48,0,0,1-3.5-20.5c-.6-11.75-1.19-22.89,6-31,6.12-6.91,15.1-8.63,17-9,9.26-1.78,12.36,2,20-1,6.59-2.62,10.44-8.68,12-11A35.38,35.38,0,0,0,339,578l95-37c-.67,2.33-1.33,4.67-2,7-3.24,3.35-15,15.08-29,21a72.48,72.48,0,0,1-13,4,46.4,46.4,0,0,1-13,1c-4.32-.33-4.46-1-7-1-7.12,0-12.56,5.54-15,8-6.69,6.76-4.79,10.17-12,18-2.94,3.19-5.56,6-10,8-5.1,2.26-10.4,2.17-21,2-7.38-.12-9.59-.68-13,1a25,25,0,0,0-8,7,28.61,28.61,0,0,0-3,5,45.88,45.88,0,0,0-4,14A131.2,131.2,0,0,0,283,660Z"/><path class="cls-8" d="M434,346c4.94,2.4,11.66,6.81,15.5,14.5C456.78,375.08,451,396,434,411a34.17,34.17,0,0,1-5-5c-6.87-8.49-7.87-18.22-8-23a51.06,51.06,0,0,1,4-23A50.35,50.35,0,0,1,434,346Z"/><path class="cls-6" d="M249,592l33-17a40,40,0,0,0,1,6,39.29,39.29,0,0,0,2,6q-9.42,1.92-19,4-9.09,2-18,4"/><path class="cls-6" d="M450,535a7.07,7.07,0,0,0-5,8c8.13-2.48,18.33-5.78,30-10,15.07-5.44,25.45-9.84,40-16,28.25-12,36.65-16.75,42-20,6.4-3.89,11.51-7.46,15-10a51.56,51.56,0,0,1-5-3c-1.49-1-2.82-2-4-3-2.3,1.52-5.71,3.67-10,6-3.87,2.1-6.85,3.47-8,4-9.07,4.19-18,8.74-27,13-28.16,13.28-29.73,14.92-46,22C462.7,530.05,455,533.09,450,535Z"/></g></g></svg>